PathFileType	4	(X/Y/Z)	D:\Share\Shared_Data\Ergonomics\Sit To Stand Pertubation\S1\Perturbed_NoHarness.trc
DataRate	CameraRate	NumFrames	NumMarkers	Units	OrigDataRate	OrigDataStartFrame	OrigNumFrames	
100	100	14	18	m	100	2462	171
Frame#	Time	L_ASIS			R_ASIS			R_Pelvis			V_Sacral			L_Pelvis			Clavical			R_Acromium			L_Acromium			Sternum			Torso			R_Thigh_Med			R_Thigh_Lat			R_Thigh			R_Shank_Med			R_Shank_Lat			R_Shank			R_Heel			R_Toe			
		X1	Y1	Z1	X2	Y2	Z2	X3	Y3	Z3	X4	Y4	Z4	X5	Y5	Z5	X6	Y6	Z6	X7	Y7	Z7	X8	Y8	Z8	X9	Y9	Z9	X10	Y10	Z10	X11	Y11	Z11	X12	Y12	Z12	X13	Y13	Z13	X14	Y14	Z14	X15	Y15	Z15	X16	Y16	Z16	X17	Y17	Z17	X18	Y18	Z18	

2462	24.61	0.0055612144	0.64213367	-0.098598801	-0.00094667101	0.63141827	0.10341368	-0.086876816	0.63700195	0.13787492	-0.19240031	0.57571356	0.012983561	-0.091165047	0.63289893	-0.13690292	0.082942741	0.94570398	-0.0014176265	0.039951477	1.0293834	0.14646735	-0.014051242	0.99177545	-0.20095909	0.071330475	0.96183417	0.10041165	0.08245607	0.94898553	-0.062308441	0.28515134	0.41496313	0.038440495	0.28319083	0.43759827	0.15918062	0.15378947	0.55264606	0.11468472	0.32627618	0.096571442	0.097566483	0.30076727	0.098638191	0.1756494	0.28633597	0.31084103	0.18188556	0.25984891	0.033062271	0.12061899	0.46480142	0.052544765	0.14070929
2463	24.62	0.0064732361	0.64151636	-0.098536705	-0.0024384949	0.63110022	0.10430473	-0.084110527	0.63684076	0.13693398	-0.19218144	0.57606946	0.012941238	-0.090400597	0.63308667	-0.13681955	0.089158875	0.94318127	-0.0012286139	0.047755905	1.0279202	0.14650227	-0.0071550112	0.99114142	-0.20014098	0.077678986	0.95971228	0.10057638	0.088808975	0.94691638	-0.061865349	0.28506039	0.41498993	0.038577194	0.28308463	0.43759509	0.15934189	0.15375777	0.55275391	0.11495824	0.32619086	0.096584793	0.097573929	0.30073013	0.098620079	0.17562566	0.28624664	0.31081165	0.18201299	0.25983505	0.033043976	0.12060185	0.46486856	0.052661831	0.14071684
2464	24.63	0.0074585447	0.64085797	-0.098468498	-0.0046818361	0.6308949	0.10551174	-0.080459259	0.63651935	0.13569873	-0.19192838	0.57647601	0.012902632	-0.089561012	0.63329565	-0.13673097	0.095669617	0.94041754	-0.001024375	0.055946888	1.0262784	0.14651546	0.00012576385	0.99040198	-0.19920886	0.084325294	0.95740338	0.10074702	0.095465134	0.94469574	-0.061353817	0.2849689	0.41501202	0.038717815	0.2829744	0.43758179	0.15950398	0.15373302	0.55282574	0.11521021	0.32609515	0.096588402	0.097594154	0.30068323	0.098597527	0.17561302	0.28615381	0.31077454	0.18214432	0.25981604	0.033017677	0.12059044	0.46493256	0.052785572	0.14072829
2465	24.64	0.0085304594	0.6401557	-0.098392097	-0.0077158852	0.63082336	0.10705547	-0.075859756	0.63601489	0.13415317	-0.1916302	0.57694556	0.0128692	-0.088631432	0.63352954	-0.13663358	0.10247228	0.93740924	-0.00080485302	0.064521965	1.024446	0.14650226	0.0077952194	0.98954987	-0.19817886	0.091267952	0.95490088	0.1009217	0.10242059	0.94231329	-0.060776142	0.28487686	0.41502991	0.038865295	0.28286063	0.43755756	0.15966869	0.15371091	0.55286517	0.11544066	0.32598666	0.096581696	0.097628914	0.30062393	0.098569633	0.17561349	0.28605737	0.31072916	0.18228136	0.25979068	0.032981915	0.12058582	0.46499066	0.05291761	0.14074512
2466	24.65	0.0097052174	0.63940619	-0.098305191	-0.011530144	0.63090173	0.10893886	-0.070293083	0.63531116	0.13229926	-0.19127295	0.57749286	0.012842364	-0.087593704	0.63379254	-0.13652333	0.10956226	0.93415814	-0.00057012689	0.073475006	1.0224114	0.14645842	0.015853306	0.98857776	-0.19707501	0.098503143	0.95220007	0.10109845	0.10966855	0.93975879	-0.060138111	0.28478467	0.41504443	0.039023407	0.2827453	0.437522	0.15983864	0.15368939	0.5528772	0.11564905	0.32586249	0.096564423	0.097679832	0.30054984	0.098535675	0.1756291	0.28595877	0.31067548	0.18242677	0.25975775	0.032935379	0.120589	0.46504037	0.053060165	0.14076923
2467	24.66	0.011001803	0.63860663	-0.098205116	-0.016057035	0.63114008	0.11114407	-0.063792461	0.63440118	0.1301597	-0.19083943	0.57813483	0.012823384	-0.086426552	0.63408887	-0.13639568	0.11693324	0.93067145	-0.00032051924	0.082795944	1.0201661	0.14638045	0.024295422	0.98747858	-0.19592807	0.10602451	0.94929883	0.10127535	0.11719942	0.93702173	-0.059449017	0.28469385	0.41505685	0.039196606	0.28263174	0.43747516	0.16001724	0.1536693	0.55286829	0.11583425	0.32571991	0.096536743	0.097748337	0.30045914	0.098495216	0.1756619	0.28586069	0.31061401	0.18258369	0.25971613	0.032877007	0.12060086	0.46507925	0.053215946	0.14080281
2468	24.67	0.012441555	0.63775433	-0.09808902	-0.021169617	0.63154077	0.11363129	-0.056446381	0.63328857	0.12777883	-0.19030943	0.57889075	0.012813187	-0.085105896	0.63442371	-0.1362459	0.12457742	0.92696149	-5.6735776e-05	0.092470764	1.0177038	0.14626575	0.03311227	0.98624548	-0.19477338	0.11382335	0.94619788	0.10145061	0.12500098	0.93409283	-0.058721222	0.28460675	0.41506912	0.039389847	0.28252478	0.43741745	0.16020845	0.15365466	0.5528468	0.11599448	0.32555612	0.096499245	0.097835579	0.30035065	0.098448166	0.17571356	0.28576788	0.31054608	0.18275572	0.25966492	0.032806034	0.12062209	0.46510507	0.053388077	0.1408483
2469	24.68	0.014047532	0.6368476	-0.097953812	-0.026685562	0.63209924	0.11633996	-0.048396004	0.63198792	0.12522133	-0.18966006	0.5797804	0.012812181	-0.083605392	0.63480212	-0.13606909	0.13248587	0.92304498	0.00021998386	0.10248143	1.0150213	0.1461127	0.042289917	0.98487317	-0.19364812	0.12188874	0.94290106	0.10162257	0.13305864	0.93096466	-0.057969379	0.28452731	0.41508377	0.039608288	0.282431	0.43734976	0.16041644	0.15365298	0.55282233	0.11612743	0.32536871	0.096452972	0.097942223	0.30022379	0.098394844	0.17578564	0.28568674	0.31047342	0.18294662	0.25960355	0.032722076	0.12065311	0.46511621	0.053579891	0.14090823
2470	24.69	0.015843667	0.63588611	-0.097796249	-0.032377655	0.63280371	0.11919216	-0.039826374	0.63052527	0.12256827	-0.18886633	0.58082465	0.012820055	-0.081897362	0.63522906	-0.13586055	0.14064874	0.91894214	0.00050772357	0.11280611	1.0121194	0.14592093	0.05181004	0.98335748	-0.19258801	0.13020793	0.93941547	0.1017898	0.14135577	0.92763275	-0.057209301	0.284461	0.41510379	0.039857006	0.28235861	0.43727325	0.16064537	0.153675	0.55280597	0.11623047	0.32515585	0.096399406	0.098068474	0.30007932	0.09833596	0.1758792	0.28562531	0.31039844	0.18315988	0.25953183	0.032625122	0.120694	0.46511142	0.053794716	0.14098529
2471	24.7	0.017853735	0.63487103	-0.097613045	-0.037990047	0.63363739	0.12209835	-0.030952196	0.62893579	0.11991115	-0.18790195	0.58204309	0.01283558	-0.079953728	0.63570972	-0.13561594	0.14905565	0.91467572	0.00080378193	0.1234193	1.0090024	0.14569124	0.061650314	0.98169714	-0.19162413	0.13876654	0.93575165	0.10195107	0.14987419	0.9240965	-0.056456665	0.28441525	0.41513269	0.040140575	0.28231744	0.43718954	0.16089896	0.15373477	0.55280957	0.11630103	0.32491693	0.096340324	0.098213951	0.29991879	0.098272621	0.17599474	0.28559338	0.31032385	0.18339861	0.25944989	0.032515564	0.12074452	0.4650903	0.054035538	0.14108188
2472	24.71	0.020100212	0.63380536	-0.09740097	-0.04325843	0.63457959	0.12496443	-0.021999722	0.62726208	0.11734454	-0.18674052	0.58345367	0.012856428	-0.077747299	0.63624872	-0.13533162	0.15769569	0.91026935	0.0011046189	0.13429219	1.0056795	0.14542557	0.071784775	0.97989349	-0.19078	0.14754887	0.93192377	0.10210533	0.15859447	0.92036072	-0.055725777	0.28439972	0.41517435	0.040462708	0.28231873	0.43710016	0.16118018	0.15384901	0.5528457	0.11633699	0.32465262	0.096277794	0.098377655	0.29974512	0.098206223	0.17613225	0.2856019	0.31025272	0.18366495	0.25935858	0.032394176	0.12080405	0.46505295	0.054304726	0.14120016
2473	24.72	0.022603067	0.63269446	-0.097157013	-0.047931572	0.63560901	0.1276994	-0.013187317	0.6255506	0.11495807	-0.18535664	0.5850705	0.012879061	-0.07525312	0.63684991	-0.13500494	0.16655739	0.90574719	0.0014058726	0.14539267	1.002163	0.14512694	0.082184219	0.97795111	-0.19006984	0.15653769	0.92794897	0.10225161	0.16749611	0.91643567	-0.055028477	0.28442651	0.41523245	0.040825802	0.28237515	0.4370069	0.16149091	0.15403673	0.55292639	0.11633721	0.32436548	0.096214073	0.098557991	0.2995621	0.098138428	0.17629091	0.28566272	0.31018799	0.18395995	0.25925906	0.032262112	0.12087166	0.46500043	0.054603687	0.14134177
2474	24.73	0.025378603	0.63154596	-0.096878609	-0.051791374	0.6367052	0.13022252	-0.0047072663	0.62384851	0.11282915	-0.18372725	0.58690295	0.012898664	-0.072449867	0.6375163	-0.13463457	0.17562817	0.90113293	0.0017024574	0.1566857	0.99847034	0.14479922	0.092816444	0.97587769	-0.18949774	0.16571432	0.92384784	0.10238892	0.17655772	0.9123374	-0.054373489	0.28450998	0.41531055	0.041230629	0.28250064	0.43691135	0.16183165	0.15431857	0.55306268	0.11630176	0.32406012	0.096151382	0.0987528	0.29937476	0.098071037	0.17646933	0.28578836	0.31013248	0.18428323	0.25915317	0.032120831	0.12094609	0.46493442	0.05493256	0.14150757
2475	24.74	0.028438398	0.63036957	-0.096563812	-0.054668823	0.63785034	0.13246899	0.0032886817	0.62220074	0.11101704	-0.18183267	0.58895435	0.012909221	-0.069321175	0.63824902	-0.13422083	0.18489386	0.8964494	0.0019887437	0.16813313	0.99462225	0.14444693	0.10364638	0.97368427	-0.18905815	0.17505801	0.91964368	0.10251611	0.18575691	0.90808838	-0.053766174	0.28466727	0.41541138	0.041676006	0.28271008	0.43681491	0.16220142	0.15471614	0.55326331	0.11623238	0.32374356	0.096091858	0.09895932	0.29918903	0.098005836	0.17666533	0.28599136	0.31008841	0.18463283	0.259043	0.031972057	0.12102591	0.46485736	0.055289982	0.14169766
